<svg xmlns="http://www.w3.org/2000/svg" xmlns:xlink="http://www.w3.org/1999/xlink" viewBox="0 0 196.99 196.99"><defs><style>.a{fill:url(#a);}.b{fill:#3c3c3b;}.c{fill:#afca0b;}.d{fill:#fff;}</style><radialGradient id="a" cx="98.5" cy="98.5" r="98.5" gradientUnits="userSpaceOnUse"><stop offset="0" stop-color="#afca0b"/><stop offset="1" stop-color="#90ae00"/></radialGradient></defs><rect class="a" width="196.99" height="196.99"/><path class="b" d="M158.65,70.81v89a12.86,12.86,0,0,1-12.87,12.86H68.61A12.86,12.86,0,0,1,55.75,159.8V48.33A12.86,12.86,0,0,1,68.61,35.47h45.85c2.94,0,.32,26.77,2.4,28.85l38-2.61A14.79,14.79,0,0,1,158.65,70.81Z"/><path class="c" d="M146.7,156V69.14H117a6.86,6.86,0,0,1-6.86-6.85V32.59H59.88a4.56,4.56,0,0,0-4.57,4.57V156a4.57,4.57,0,0,0,4.57,4.57h82.25A4.58,4.58,0,0,0,146.7,156Z"/><path class="d" d="M155.84,61.11V156a13.7,13.7,0,0,1-13.71,13.7H59.88A13.7,13.7,0,0,1,46.17,156V37.16A13.7,13.7,0,0,1,59.88,23.45h58.29a15.68,15.68,0,0,1,9.69,4l24,24A15.72,15.72,0,0,1,155.84,61.11ZM146.7,156V69.14H117a6.86,6.86,0,0,1-6.86-6.85V32.59H59.88a4.57,4.57,0,0,0-4.58,4.57V156a4.58,4.58,0,0,0,4.58,4.57h82.25A4.58,4.58,0,0,0,146.7,156Zm-25.3-122a5.25,5.25,0,0,0-2.12-1.19V60h27.28a5.53,5.53,0,0,0-1.2-2.12Z"/><path class="b" d="M69,123.7v0a13,13,0,0,1,2.06-6.94L90.7,84.49a13.52,13.52,0,0,1,1.75-2.25,12.46,12.46,0,0,1,9.1-3.9,12.7,12.7,0,0,1,10.83,6.21l19.62,32a13.67,13.67,0,0,1,.48,13.44,14.76,14.76,0,0,1-2.16,3,12.53,12.53,0,0,1-9.13,4,11.11,11.11,0,0,1-8-3.46l-6.56-6.86a4.23,4.23,0,0,0-.3-.3,7,7,0,0,0-9.94.28l-6.57,6.9a11,11,0,0,1-8,3.44,12.62,12.62,0,0,1-11.28-7A13.64,13.64,0,0,1,69,123.75Zm54.94,0a3.59,3.59,0,0,0-.54-1.89L103.74,89.75a2.62,2.62,0,0,0-2.23-1.33,2.43,2.43,0,0,0-1.75.76,3.5,3.5,0,0,0-.48.6L79.62,122a3.12,3.12,0,0,0-.53,1.65,3.52,3.52,0,0,0,.43,1.61l.08.16a2.59,2.59,0,0,0,2.3,1.44.86.86,0,0,0,.61-.29l6.59-6.91a17.13,17.13,0,0,1,24.18-.67l.68.68,6.56,6.87a1,1,0,0,0,.71.32,2.4,2.4,0,0,0,1.72-.76,4.57,4.57,0,0,0,.63-.89A3.32,3.32,0,0,0,124,123.72Z"/><circle class="b" cx="101.51" cy="143.85" r="6.88"/><path class="d" d="M63,56V52.89h1.87A1.63,1.63,0,0,0,66,52.54a1.45,1.45,0,0,0,.38-1.12V39.63h3.85V52a4.43,4.43,0,0,1-1.06,3.26,4.62,4.62,0,0,1-3.42,1.07A8.65,8.65,0,0,1,63,56Z"/><path class="d" d="M72.17,39.74H76.1l3.48,12.35,3.47-12.35H87L82,56.26H77.2Z"/><path class="d" d="M89.05,39.74H92.9v6.55h5.46V39.74h3.93V56.26H98.36V49.77h-5.5v6.49H89.05Z"/></svg>